<svg width="28" height="28" viewBox="0 0 28 28" fill="none" xmlns="http://www.w3.org/2000/svg">
<g id="guarantee 1" clip-path="url(#clip0_301_1221)">
<g id="Group">
<path id="Vector" d="M26.5001 9.92192C26.1307 8.77785 26.2882 7.0605 25.3279 5.7345C24.36 4.39804 22.6767 4.01818 21.7261 3.323C20.7856 2.63514 19.9106 1.13828 18.3286 0.622034C16.7911 0.120331 15.219 0.801135 14 0.801135C12.7812 0.801135 11.2091 0.120167 9.67143 0.621979C8.08965 1.13812 7.21394 2.6353 6.27402 3.32283C5.32454 4.0172 3.63995 4.3981 2.67225 5.73433C1.71276 7.05925 1.86867 8.78053 1.49986 9.92186C1.14887 11.0081 0 12.3118 0 14.0001C0 15.6895 1.14756 16.9881 1.49986 18.0783C1.86933 19.2224 1.71183 20.9398 2.67214 22.2658C3.63995 23.6023 5.32323 23.9821 6.27386 24.6773C7.21421 25.3651 8.08937 26.862 9.67143 27.3782C11.2078 27.8796 12.7824 27.1991 14 27.1991C15.2159 27.1991 16.7941 27.8789 18.3286 27.3783C19.9104 26.8621 20.7856 25.3653 21.726 24.6774C22.6755 23.9831 24.3601 23.6022 25.3277 22.2659C26.2873 20.941 26.1313 19.2198 26.5001 18.0784C26.8511 16.9921 28 15.6884 28 14.0001C28 12.3109 26.8527 11.0126 26.5001 9.92192ZM24.4187 17.4057C23.988 18.7387 24.1008 20.2306 23.5561 20.9827C23.0041 21.7449 21.5539 22.0931 20.4348 22.9116C19.328 23.7211 18.5522 25.0042 17.65 25.2986C16.7964 25.5771 15.4054 25.0115 14.0001 25.0115C12.5844 25.0115 11.2077 25.5783 10.35 25.2986C9.44792 25.0042 8.67327 23.7219 7.56525 22.9116C6.4528 22.098 4.99428 21.7427 4.44385 20.9826C3.90091 20.233 4.00947 18.7308 3.58143 17.4058C3.16187 16.1076 2.1875 14.9835 2.1875 14.0001C2.1875 13.0158 3.16099 11.8956 3.58132 10.5945C4.01198 9.26157 3.89916 7.76964 4.44385 7.01752C4.99554 6.25583 6.44689 5.90654 7.56525 5.08864C8.67557 4.27658 9.44645 2.99651 10.3499 2.70169C11.2028 2.42344 12.5984 2.98875 13.9999 2.98875C15.4182 2.98875 16.7914 2.42153 17.65 2.70169C18.552 2.99602 19.3273 4.27877 20.4348 5.08869C21.5471 5.90228 23.0057 6.25758 23.5561 7.01757C24.0992 7.76739 23.99 9.26802 24.4186 10.5944V10.5945C24.8381 11.8927 25.8125 13.0168 25.8125 14.0001C25.8125 14.9844 24.839 16.1047 24.4187 17.4057ZM19.0391 10.4895C19.4662 10.9166 19.4662 11.6091 19.0391 12.0362L13.5645 17.5108C13.1374 17.938 12.4448 17.9379 12.0177 17.5108L8.96098 14.4541C8.53382 14.0269 8.53377 13.3344 8.96093 12.9073C9.38809 12.4802 10.0807 12.4801 10.5077 12.9073L12.7911 15.1906L17.4922 10.4895C17.9193 10.0624 18.6119 10.0624 19.0391 10.4895Z" fill="#244D4D"/>
</g>
</g>
<defs>
<clipPath id="clip0_301_1221">
<rect width="28" height="28" fill="white"/>
</clipPath>
</defs>
</svg>
