<svg width="80" height="24" viewBox="0 0 80 24" fill="none" xmlns="http://www.w3.org/2000/svg">
<path id="logo 1" d="M42.0085 6.01474C42.0085 6.87961 41.2759 7.58722 40.3806 7.58722C39.4853 7.58722 38.7527 6.87961 38.7527 6.01474C38.7527 5.14988 39.4446 4.44226 40.3806 4.44226C41.3166 4.46192 42.0085 5.16953 42.0085 6.01474ZM35.3342 9.15971C35.3342 9.2973 35.3342 9.55283 35.3342 9.55283C35.3342 9.55283 34.5609 8.58968 32.9127 8.58968C30.2064 8.58968 28.0698 10.5946 28.0698 13.3464C28.0698 16.0983 30.1657 18.1032 32.9127 18.1032C34.5813 18.1032 35.3342 17.1204 35.3342 17.1204V17.5332C35.3342 17.7297 35.4766 17.8673 35.6801 17.8673H37.6946V8.82555C37.6946 8.82555 35.8429 8.82555 35.6801 8.82555C35.4766 8.82555 35.3342 9.00246 35.3342 9.15971ZM35.3342 14.9582C34.9679 15.4889 34.215 15.941 33.3197 15.941C31.7325 15.941 30.5116 14.9779 30.5116 13.3464C30.5116 11.715 31.7325 10.7518 33.3197 10.7518C34.1947 10.7518 34.9882 11.2236 35.3342 11.7346V14.9582ZM39.2004 8.82555H41.6015V17.8673H39.2004V8.82555ZM74.9119 8.58968C73.2637 8.58968 72.4904 9.55283 72.4904 9.55283V4.48157H70.0893V17.887C70.0893 17.887 71.941 17.887 72.1038 17.887C72.3073 17.887 72.4497 17.7101 72.4497 17.5528V17.14C72.4497 17.14 73.223 18.1228 74.8712 18.1228C77.5776 18.1228 79.7141 16.0983 79.7141 13.3661C79.7345 10.6143 77.5979 8.58968 74.9119 8.58968ZM74.5253 15.9214C73.6096 15.9214 72.8771 15.4693 72.5108 14.9386V11.715C72.8771 11.2432 73.691 10.7322 74.5253 10.7322C76.1125 10.7322 77.3334 11.6953 77.3334 13.3268C77.3334 14.9582 76.1125 15.9214 74.5253 15.9214ZM68.8684 12.5012V17.887H66.4673V12.7764C66.4673 11.2826 65.9789 10.6732 64.6156 10.6732C63.883 10.6732 63.1505 11.027 62.6825 11.5577V17.8673H60.2814V8.82555H62.1738C62.3773 8.82555 62.5197 9.00246 62.5197 9.15971V9.55283C63.2115 8.84521 64.1476 8.58968 65.0633 8.58968C66.101 8.58968 66.976 8.88452 67.6882 9.45455C68.5428 10.1229 68.8684 10.9877 68.8684 12.5012ZM54.4821 8.58968C52.8338 8.58968 52.0606 9.55283 52.0606 9.55283V4.48157H49.6595V17.887C49.6595 17.887 51.5112 17.887 51.674 17.887C51.8775 17.887 52.0199 17.7101 52.0199 17.5528V17.14C52.0199 17.14 52.7931 18.1228 54.4414 18.1228C57.1477 18.1228 59.2843 16.0983 59.2843 13.3661C59.325 10.6143 57.2088 8.58968 54.4821 8.58968ZM54.0954 15.9214C53.1798 15.9214 52.4472 15.4693 52.0809 14.9386V11.715C52.4472 11.2432 53.2612 10.7322 54.0954 10.7322C55.6826 10.7322 56.9035 11.6953 56.9035 13.3268C56.9035 14.9582 55.6826 15.9214 54.0954 15.9214ZM47.6043 8.58968C48.3368 8.58968 48.7031 8.70762 48.7031 8.70762V10.8501C48.7031 10.8501 46.709 10.2015 45.4677 11.5774V17.9066H43.0666V8.82555C43.0666 8.82555 44.9183 8.82555 45.0811 8.82555C45.2846 8.82555 45.427 9.00246 45.427 9.15971V9.55283C45.895 9.04177 46.8717 8.58968 47.6043 8.58968ZM22.7792 17.0614C22.6571 16.7666 22.535 16.4521 22.4129 16.1966C22.2094 15.7641 22.0059 15.3513 21.8431 14.9779L21.8228 14.9582C20.1135 11.3415 18.2618 7.6855 16.3084 4.08845L16.227 3.95086C16.0235 3.59705 15.82 3.20393 15.6369 2.81081C15.3927 2.37838 15.1485 1.92629 14.7415 1.49386C13.9479 0.530712 12.8084 0 11.5875 0C10.3463 0 9.2271 0.530713 8.39281 1.43489C8.02654 1.86732 7.74166 2.31941 7.49748 2.75184C7.294 3.14496 7.09051 3.51843 6.90737 3.89189L6.82598 4.02948C4.91323 7.64619 3.04117 11.3022 1.31155 14.8993L1.2912 14.9386C1.10807 15.3317 0.92493 15.7248 0.721445 16.1572C0.599354 16.4128 0.477264 16.7076 0.355173 17.0221C0.0295977 17.9066 -0.0721445 18.7518 0.0499462 19.6167C0.314476 21.4251 1.57608 22.9386 3.28535 23.6069C3.9365 23.8624 4.608 24 5.29985 24C5.50333 24 5.74751 23.9803 5.951 23.9607C6.76494 23.8624 7.61957 23.6069 8.43351 23.1351C9.45093 22.5848 10.4277 21.7789 11.5265 20.6388C12.6253 21.7985 13.6224 22.5848 14.6194 23.1351C15.4334 23.5872 16.288 23.8624 17.1019 23.9607C17.3054 23.9803 17.5496 24 17.7531 24C18.4449 24 19.1571 23.8821 19.7676 23.6069C21.5176 22.9386 22.7385 21.3857 23.003 19.6167C23.2065 18.7912 23.1047 17.9459 22.7792 17.0614ZM11.5468 18.2998C10.2038 16.6683 9.32884 15.1155 9.02361 13.8182C8.90152 13.2678 8.88118 12.7764 8.94222 12.344C8.98292 11.9509 9.1457 11.6167 9.34919 11.3415C9.8172 10.6929 10.6108 10.2801 11.5468 10.2801C12.4829 10.2801 13.2968 10.6732 13.7445 11.3415C13.9479 11.6364 14.0904 11.9705 14.1514 12.344C14.2328 12.7764 14.1921 13.2875 14.07 13.8182C13.7648 15.1155 12.8898 16.6486 11.5468 18.2998ZM21.4769 19.4398C21.2937 20.6978 20.4391 21.7789 19.2182 22.2506C18.6281 22.4865 17.9769 22.5651 17.3258 22.4865C16.695 22.4079 16.0845 22.231 15.4334 21.8575C14.538 21.3857 13.6427 20.6388 12.5846 19.5184C14.2328 17.5725 15.2299 15.7838 15.5962 14.1916C15.7793 13.4447 15.7996 12.7764 15.7183 12.1474C15.6165 11.5381 15.3927 10.9877 15.0468 10.516C14.2735 9.43489 12.9712 8.8059 11.5265 8.8059C10.0817 8.8059 8.77943 9.45455 8.00619 10.516C7.66027 10.9877 7.43644 11.5577 7.33469 12.1474C7.23295 12.7764 7.2533 13.4644 7.45678 14.1916C7.82306 15.7838 8.86083 17.5921 10.4684 19.5381C9.45093 20.6388 8.53525 21.3857 7.61957 21.8771C6.96842 22.231 6.35797 22.4275 5.72716 22.5061C5.05567 22.5848 4.40452 22.4865 3.83476 22.2703C2.61385 21.7985 1.73887 20.6978 1.57608 19.4595C1.49469 18.8501 1.55573 18.2604 1.79991 17.5921C1.88131 17.3563 2.0034 17.1204 2.12549 16.8256C2.30862 16.4324 2.49176 16.0393 2.69525 15.6265L2.71559 15.5872C4.42486 12.0098 6.27657 8.33415 8.18933 4.77641L8.27072 4.63882C8.47421 4.28501 8.67769 3.89189 8.86083 3.53808C9.06431 3.14496 9.28814 2.79115 9.55267 2.47666C10.0817 1.90663 10.7736 1.59214 11.5468 1.59214C12.3201 1.59214 13.0119 1.90663 13.541 2.47666C13.8055 2.79115 14.0293 3.14496 14.2328 3.53808C14.4363 3.89189 14.6398 4.28501 14.8229 4.63882L14.9043 4.77641C16.7967 8.35381 18.6484 12.0295 20.3577 15.6069V15.6265C20.5612 16.0197 20.724 16.4521 20.9275 16.8256C21.0495 17.1204 21.1716 17.3563 21.253 17.5921C21.4972 18.2015 21.5786 18.8108 21.4769 19.4398Z" fill="#244D4D"/>
</svg>
