<svg width="17" height="17" viewBox="0 0 17 17" fill="none" xmlns="http://www.w3.org/2000/svg">
<g id="email 1" clip-path="url(#clip0_2339_759)">
<g id="Group">
<g id="Group_2">
<path id="Vector" d="M10.6211 8.44841L16.0151 11.8584V4.89441L10.6211 8.44841Z" fill="#7F7F7F"/>
</g>
</g>
<g id="Group_3">
<g id="Group_4">
<path id="Vector_2" d="M0.015625 4.89441V11.8584L5.40963 8.44841L0.015625 4.89441Z" fill="#7F7F7F"/>
</g>
</g>
<g id="Group_5">
<g id="Group_6">
<path id="Vector_3" d="M15.0169 2.86646H1.01688C0.517875 2.86646 0.121875 3.23846 0.046875 3.71746L8.01687 8.96846L15.9869 3.71746C15.9119 3.23846 15.5159 2.86646 15.0169 2.86646Z" fill="#7F7F7F"/>
</g>
</g>
<g id="Group_7">
<g id="Group_8">
<path id="Vector_4" d="M9.70487 9.05251L8.28988 9.98451C8.20588 10.0395 8.11088 10.0665 8.01487 10.0665C7.91887 10.0665 7.82387 10.0395 7.73987 9.98451L6.32487 9.05151L0.046875 13.0225C0.123875 13.4975 0.517875 13.8665 1.01487 13.8665H15.0149C15.5119 13.8665 15.9059 13.4975 15.9829 13.0225L9.70487 9.05251Z" fill="#7F7F7F"/>
</g>
</g>
</g>
<defs>
<clipPath id="clip0_2339_759">
<rect width="16" height="16" fill="white" transform="translate(0.015625 0.366455)"/>
</clipPath>
</defs>
</svg>
