<svg width="20" height="21" viewBox="0 0 20 21" fill="none" xmlns="http://www.w3.org/2000/svg">
<g id="facebook 2" clip-path="url(#clip0_2339_729)">
<g id="Group">
<path id="Vector" d="M10 20.9253C15.5228 20.9253 20 16.4481 20 10.9253C20 5.40245 15.5228 0.925293 10 0.925293C4.47715 0.925293 0 5.40245 0 10.9253C0 16.4481 4.47715 20.9253 10 20.9253Z" fill="white"/>
<path id="Vector_2" d="M12.5158 11.3167H10.7315V17.8538H8.02797V11.3167H6.74219V9.01928H8.02797V7.53259C8.02797 6.46945 8.53298 4.80469 10.7555 4.80469L12.7581 4.81307V7.04309H11.3051C11.0668 7.04309 10.7316 7.16217 10.7316 7.66932V9.02141H12.752L12.5158 11.3167Z" fill="#305F64"/>
</g>
</g>
<defs>
<clipPath id="clip0_2339_729">
<rect width="20" height="20" fill="white" transform="translate(0 0.925293)"/>
</clipPath>
</defs>
</svg>
