<svg width="28" height="28" viewBox="0 0 28 28" fill="none" xmlns="http://www.w3.org/2000/svg">
<g id="free-delivery 1" clip-path="url(#clip0_301_1225)">
<g id="Group">
<path id="Vector" d="M22.7865 11.4306H20.0922V9.61499C20.0922 9.16196 19.7249 8.79468 19.2719 8.79468H0.820312C0.367281 8.79468 0 9.16196 0 9.61499V24.5519C0 25.005 0.367281 25.3723 0.820312 25.3723H3.61375C4.50647 28.8658 9.43655 28.8634 10.3279 25.3723H17.672C18.5648 28.8658 23.4948 28.8634 24.3862 25.3723H27.1797C27.6327 25.3723 28 25.005 28 24.5519V16.6441C28 13.7694 25.6612 11.4306 22.7865 11.4306ZM6.97085 26.3676C5.96969 26.3676 5.15523 25.5531 5.15523 24.5519C5.25492 22.1433 8.68716 22.144 8.78648 24.5519C8.78648 25.5531 7.97196 26.3676 6.97085 26.3676ZM18.4516 22.2526C18.0805 22.6681 17.8085 23.1734 17.672 23.7316H10.3279C9.43518 20.2381 4.5051 20.2405 3.61375 23.7316H1.64062V10.4352H18.4516V22.2526ZM21.0291 26.3676C20.028 26.3676 19.2135 25.5531 19.2135 24.5519C19.3132 22.1433 22.7455 22.144 22.8448 24.5519C22.8448 25.5531 22.0303 26.3676 21.0291 26.3676ZM26.3594 23.7316H24.3871C24.0179 22.2205 22.6524 21.0957 21.0292 21.0957H20.0922V13.0712H21.9662V18.4015C21.9662 18.8545 22.3334 19.2218 22.7865 19.2218H26.3594V23.7316ZM26.3594 17.5811H23.6068V13.1662C25.1828 13.5379 26.3594 14.9563 26.3594 16.6441V17.5811Z" fill="#244D4D"/>
<path id="Vector_2" d="M20.1486 6.9208H22.3453C23.4337 6.87743 23.4328 5.32311 22.3453 5.28018H21.117L21.2828 4.28486H22.3453C23.4337 4.2415 23.4328 2.68717 22.3453 2.64424H21.5563L21.7222 1.64893H23.2239C24.3123 1.60556 24.3114 0.0512305 23.2239 0.00830078H21.0272C20.6262 0.00830078 20.284 0.298199 20.2181 0.693754L19.3395 5.96563C19.2561 6.46575 19.6424 6.9208 20.1486 6.9208Z" fill="#222222"/>
<path id="Vector_3" d="M14.879 6.9208H17.0757C18.1641 6.87743 18.1633 5.32311 17.0757 5.28018H15.8474L16.0133 4.28486H17.0757C18.1641 4.2415 18.1633 2.68717 17.0757 2.64424H16.2868L16.4527 1.64893H17.9543C19.0427 1.60556 19.0419 0.0512305 17.9543 0.00830078H15.7578C15.3567 0.00830078 15.0145 0.298199 14.9486 0.693754L14.0699 5.96563C13.9866 6.46575 14.3729 6.9208 14.879 6.9208Z" fill="#244D4D"/>
<path id="Vector_4" d="M8.59189 6.90964C9.22878 7.01579 9.49779 6.46394 9.53591 6.23535L9.67044 5.42827L11.2854 6.73765C11.6587 7.04024 12.1717 6.94716 12.4393 6.61707C12.7246 6.26515 12.6706 5.74857 12.3187 5.46327L11.407 4.72417H12.168C12.5689 4.72417 12.9112 4.43427 12.9771 4.03877L13.4898 0.963527C13.5732 0.463356 13.1868 0.00830078 12.6807 0.00830078H9.60541C9.20439 0.00830078 8.86216 0.298199 8.79626 0.693754L8.28717 3.74805C8.28695 3.74914 8.28684 3.75029 8.28663 3.75139C8.28619 3.75357 8.28591 3.75576 8.28553 3.75795C8.28373 3.76796 8.28192 3.77802 8.2805 3.78814L7.91754 5.96563C7.84305 6.41248 8.14499 6.83516 8.59189 6.90964ZM10.3003 1.64893H11.7123L11.4731 3.08354H10.0612L10.3003 1.64893Z" fill="#244D4D"/>
<path id="Vector_5" d="M3.75982 6.90959C4.39671 7.01574 4.66572 6.46383 4.70384 6.23529L4.95567 4.72417H6.09126C7.17965 4.6808 7.17883 3.12647 6.09126 3.08354H5.22911L5.4682 1.64893H6.96992C8.05831 1.60556 8.05749 0.0512305 6.96992 0.00830078H4.77329C4.37227 0.00830078 4.03003 0.298199 3.96413 0.693754L3.08552 5.96563C3.01098 6.41243 3.31291 6.8351 3.75982 6.90959Z" fill="#244D4D"/>
</g>
</g>
<defs>
<clipPath id="clip0_301_1225">
<rect width="28" height="28" fill="white"/>
</clipPath>
</defs>
</svg>
