<svg width="31" height="24" viewBox="0 0 31 24" fill="none" xmlns="http://www.w3.org/2000/svg">
<g id="Frame 65" clip-path="url(#clip0_301_1200)">
<g id="g15">
<path id="XMLID_1775_" d="M5.64151 23.9467V22.3538C5.64151 21.7431 5.26899 21.3449 4.63037 21.3449C4.31106 21.3449 3.96514 21.4511 3.72566 21.7962C3.53939 21.5042 3.2733 21.3449 2.87416 21.3449C2.60807 21.3449 2.34198 21.4246 2.12911 21.7166V21.398H1.57031V23.9467H2.12911V22.5396C2.12911 22.0883 2.36859 21.8759 2.74111 21.8759C3.11364 21.8759 3.29991 22.1148 3.29991 22.5396V23.9467H3.8587V22.5396C3.8587 22.0883 4.12479 21.8759 4.47071 21.8759C4.84324 21.8759 5.02951 22.1148 5.02951 22.5396V23.9467H5.64151ZM13.917 21.398H13.0123V20.6281H12.4535V21.398H11.9479V21.9024H12.4535V23.0706C12.4535 23.6546 12.6929 23.9998 13.3316 23.9998C13.571 23.9998 13.8371 23.9201 14.0234 23.8139L13.8637 23.336C13.7041 23.4422 13.5178 23.4688 13.3848 23.4688C13.1187 23.4688 13.0123 23.3095 13.0123 23.044V21.9024H13.917V21.398ZM18.6534 21.3449C18.3341 21.3449 18.1212 21.5042 17.9882 21.7166V21.398H17.4294V23.9467H17.9882V22.513C17.9882 22.0883 18.1744 21.8493 18.5204 21.8493C18.6268 21.8493 18.7598 21.8759 18.8663 21.9024L19.0259 21.3715C18.9195 21.3449 18.7598 21.3449 18.6534 21.3449ZM11.4955 21.6104C11.2294 21.4245 10.8569 21.3449 10.4578 21.3449C9.81916 21.3449 9.39341 21.6635 9.39341 22.1679C9.39341 22.5927 9.71272 22.8316 10.2715 22.9113L10.5376 22.9378C10.8303 22.9909 10.99 23.0706 10.99 23.2033C10.99 23.3891 10.7771 23.5219 10.4046 23.5219C10.032 23.5219 9.73933 23.3891 9.55307 23.2564L9.28697 23.6812C9.57967 23.8936 9.97881 23.9998 10.378 23.9998C11.123 23.9998 11.5488 23.6546 11.5488 23.1768C11.5488 22.7254 11.2028 22.4865 10.6706 22.4068L10.4046 22.3803C10.1651 22.3538 9.97881 22.3007 9.97881 22.1414C9.97881 21.9555 10.1651 21.8493 10.4578 21.8493C10.7771 21.8493 11.0964 21.9821 11.2561 22.0617L11.4955 21.6104ZM26.3435 21.3449C26.0241 21.3449 25.8113 21.5042 25.6782 21.7166V21.398H25.1194V23.9467H25.6782V22.513C25.6782 22.0883 25.8645 21.8493 26.2104 21.8493C26.3168 21.8493 26.4499 21.8759 26.5563 21.9024L26.716 21.3715C26.6095 21.3449 26.4499 21.3449 26.3435 21.3449ZM19.2122 22.6723C19.2122 23.4422 19.7444 23.9998 20.5693 23.9998C20.9418 23.9998 21.2079 23.9201 21.474 23.7077L21.2079 23.2564C20.995 23.4157 20.7821 23.4953 20.5427 23.4953C20.0903 23.4953 19.771 23.1768 19.771 22.6723C19.771 22.1945 20.0903 21.8759 20.5427 21.8493C20.7821 21.8493 20.995 21.929 21.2079 22.0883L21.474 21.6369C21.2079 21.4246 20.9418 21.3449 20.5693 21.3449C19.7444 21.3449 19.2122 21.9024 19.2122 22.6723ZM24.3744 22.6723V21.398H23.8156V21.7166C23.6293 21.4777 23.3632 21.3449 23.0173 21.3449C22.2989 21.3449 21.7401 21.9024 21.7401 22.6723C21.7401 23.4422 22.2989 23.9998 23.0173 23.9998C23.3898 23.9998 23.6559 23.867 23.8156 23.6281V23.9467H24.3744V22.6723ZM22.3255 22.6723C22.3255 22.221 22.6182 21.8493 23.0971 21.8493C23.5495 21.8493 23.8688 22.1945 23.8688 22.6723C23.8688 23.1237 23.5495 23.4953 23.0971 23.4953C22.6182 23.4688 22.3255 23.1237 22.3255 22.6723ZM15.6466 21.3449C14.9015 21.3449 14.3693 21.8759 14.3693 22.6723C14.3693 23.4688 14.9015 23.9998 15.6732 23.9998C16.0457 23.9998 16.4182 23.8936 16.7109 23.6546L16.4448 23.2564C16.232 23.4157 15.9659 23.5219 15.6998 23.5219C15.3539 23.5219 15.0079 23.3626 14.9281 22.9113H16.8174C16.8174 22.8316 16.8174 22.7785 16.8174 22.6989C16.844 21.8759 16.365 21.3449 15.6466 21.3449ZM15.6466 21.8228C15.9925 21.8228 16.232 22.0352 16.2852 22.4334H14.9547C15.0079 22.0883 15.2474 21.8228 15.6466 21.8228ZM29.5099 22.6723V20.3892H28.9512V21.7166C28.7649 21.4777 28.4988 21.3449 28.1529 21.3449C27.4344 21.3449 26.8756 21.9024 26.8756 22.6723C26.8756 23.4422 27.4344 23.9998 28.1529 23.9998C28.5254 23.9998 28.7915 23.867 28.9512 23.6281V23.9467H29.5099V22.6723ZM27.461 22.6723C27.461 22.221 27.7537 21.8493 28.2327 21.8493C28.6851 21.8493 29.0044 22.1945 29.0044 22.6723C29.0044 23.1237 28.6851 23.4953 28.2327 23.4953C27.7537 23.4688 27.461 23.1237 27.461 22.6723ZM8.7814 22.6723V21.398H8.22261V21.7166C8.03634 21.4777 7.77025 21.3449 7.42433 21.3449C6.70588 21.3449 6.14709 21.9024 6.14709 22.6723C6.14709 23.4422 6.70588 23.9998 7.42433 23.9998C7.79686 23.9998 8.06295 23.867 8.22261 23.6281V23.9467H8.7814V22.6723ZM6.70588 22.6723C6.70588 22.221 6.99858 21.8493 7.47754 21.8493C7.9299 21.8493 8.24922 22.1945 8.24922 22.6723C8.24922 23.1237 7.9299 23.4953 7.47754 23.4953C6.99858 23.4688 6.70588 23.1237 6.70588 22.6723Z" fill="black"/>
</g>
<g id="XMLID_328_">
<path id="rect19" d="M19.6905 2.04443H11.3086V17.0709H19.6905V2.04443Z" fill="#FF5F00"/>
<path id="XMLID_330_" d="M11.8411 9.5575C11.8411 6.50441 13.278 3.79646 15.4865 2.04425C13.8634 0.769913 11.8145 0 9.57931 0C4.28408 0 0 4.27433 0 9.5575C0 14.8407 4.28408 19.115 9.57931 19.115C11.8145 19.115 13.8634 18.3451 15.4865 17.0708C13.278 15.3451 11.8411 12.6106 11.8411 9.5575Z" fill="#EB001B"/>
<path id="path22" d="M30.9983 9.5575C30.9983 14.8407 26.7142 19.115 21.419 19.115C19.1838 19.115 17.1349 18.3451 15.5117 17.0708C17.7469 15.3186 19.1572 12.6106 19.1572 9.5575C19.1572 6.50441 17.7203 3.79646 15.5117 2.04425C17.1349 0.769913 19.1838 0 21.419 0C26.7142 0 30.9983 4.30088 30.9983 9.5575Z" fill="#F79E1B"/>
</g>
</g>
<defs>
<clipPath id="clip0_301_1200">
<rect width="31" height="24" fill="white"/>
</clipPath>
</defs>
</svg>
