<svg width="72" height="24" viewBox="0 0 72 24" fill="none" xmlns="http://www.w3.org/2000/svg">
<g id="Frame 14" clip-path="url(#clip0_301_1183)">
<g id="Group 8908">
<g id="g10">
<g id="g12">
<path id="path14" d="M9.41984 0.000751495H3.92945C3.55368 0.000751495 3.23419 0.349115 3.17556 0.822504L0.954984 18.786C0.910819 19.1403 1.12602 19.46 1.40776 19.46H4.02897C4.40467 19.46 4.72416 19.1117 4.78279 18.6375L5.38168 13.7925C5.43952 13.3181 5.7598 12.9698 6.13471 12.9698H7.87281C11.4895 12.9698 13.5768 10.7368 14.1219 6.31173C14.3676 4.37573 14.1323 2.85465 13.4218 1.78937C12.6415 0.619471 11.2575 0.000751495 9.41984 0.000751495ZM10.0533 6.56169C9.75302 9.07539 8.24773 9.07539 6.79223 9.07539H5.96375L6.54496 4.38093C6.57952 4.09715 6.77214 3.8882 6.99696 3.8882H7.37666C8.36812 3.8882 9.30345 3.8882 9.78671 4.60924C10.0749 5.03952 10.1633 5.67867 10.0533 6.56169Z" fill="#283B82"/>
<path id="path16" d="M25.83 6.48096H23.2008C22.9769 6.48096 22.7834 6.68993 22.7488 6.97369L22.6325 7.91196L22.4486 7.57184C21.8794 6.51778 20.6101 6.16549 19.3433 6.16549C16.438 6.16549 13.9564 8.97314 13.4732 12.9117C13.2219 14.8763 13.5792 16.7549 14.4526 18.065C15.2538 19.2696 16.4002 19.7715 17.7642 19.7715C20.1052 19.7715 21.4034 17.851 21.4034 17.851L21.2861 18.7831C21.2419 19.1396 21.4572 19.4592 21.7374 19.4592H24.1055C24.4821 19.4592 24.8 19.1109 24.8595 18.6367L26.2804 7.15494C26.3254 6.80154 26.111 6.48096 25.83 6.48096ZM22.1652 13.01C21.9116 14.9265 20.7193 16.2131 19.1989 16.2131C18.4354 16.2131 17.8252 15.9006 17.4334 15.3086C17.0449 14.7206 16.8971 13.8837 17.0208 12.9516C17.2576 11.0515 18.4699 9.72299 19.9671 9.72299C20.7138 9.72299 21.3206 10.0395 21.7205 10.6366C22.1211 11.2399 22.2799 12.0819 22.1652 13.01Z" fill="#283B82"/>
<path id="path18" d="M39.8357 6.48081H37.1936C36.9416 6.48081 36.7047 6.64061 36.5618 6.90802L32.9178 13.7566L31.3733 7.17534C31.2761 6.7635 30.9783 6.48081 30.6411 6.48081H28.0449C27.7293 6.48081 27.5102 6.87412 27.6105 7.25313L30.5207 18.1499L27.7847 23.078C27.5695 23.4661 27.7862 24 28.1581 24H30.7969C31.0473 24 31.2818 23.8442 31.4239 23.582L40.2114 7.39765C40.4217 7.01037 40.2058 6.48081 39.8357 6.48081Z" fill="#283B82"/>
<path id="path20" d="M48.58 0.000751495H43.0888C42.7139 0.000751495 42.3943 0.349115 42.3357 0.822504L40.1151 18.786C40.0711 19.1403 40.2861 19.46 40.5664 19.46H43.3842C43.6459 19.46 43.87 19.2163 43.9109 18.8844L44.541 13.7925C44.5988 13.3181 44.9192 12.9698 45.2941 12.9698H47.0314C50.6488 12.9698 52.7354 10.7368 53.2812 6.31173C53.5278 4.37573 53.291 2.85465 52.5804 1.78937C51.8009 0.619471 50.4176 0.000751495 48.58 0.000751495ZM49.2135 6.56169C48.914 9.07539 47.4088 9.07539 45.9524 9.07539H45.1248L45.7068 4.38093C45.7413 4.09715 45.9323 3.8882 46.1579 3.8882H46.5376C47.5284 3.8882 48.4644 3.8882 48.9476 4.60924C49.2359 5.03952 49.3233 5.67867 49.2135 6.56169Z" fill="#469BDB"/>
<path id="path22" d="M64.9946 6.48096H62.367C62.1414 6.48096 61.9495 6.68993 61.9158 6.97369L61.7994 7.91196L61.6148 7.57184C61.0456 6.51778 59.7771 6.16549 58.5103 6.16549C55.6048 6.16549 53.1243 8.97314 52.6409 12.9117C52.3905 14.8763 52.7461 16.7549 53.6196 18.065C54.4224 19.2696 55.5672 19.7715 56.9311 19.7715C59.2721 19.7715 60.5703 17.851 60.5703 17.851L60.453 18.7831C60.409 19.1396 60.624 19.4592 60.9059 19.4592H63.2734C63.6483 19.4592 63.9679 19.1109 64.0265 18.6367L65.4482 7.15494C65.4915 6.80154 65.2764 6.48096 64.9946 6.48096ZM61.3297 13.01C61.0776 14.9265 59.8838 16.2131 58.3634 16.2131C57.6015 16.2131 56.9897 15.9006 56.598 15.3086C56.2095 14.7206 56.0633 13.8837 56.1854 12.9516C56.4238 11.0515 57.6345 9.72299 59.1318 9.72299C59.8783 9.72299 60.4852 10.0395 60.885 10.6366C61.2872 11.2399 61.4461 12.0819 61.3297 13.01Z" fill="#469BDB"/>
<path id="path24" d="M68.0913 0.49358L65.8378 18.786C65.7937 19.1403 66.0088 19.46 66.289 19.46H68.5545C68.931 19.46 69.2506 19.1117 69.3084 18.6375L71.5305 0.675028C71.5747 0.320467 71.3596 -0.000110626 71.0794 -0.000110626H68.5424C68.3185 0.000743866 68.1258 0.209974 68.0913 0.49358Z" fill="#469BDB"/>
</g>
</g>
</g>
</g>
<defs>
<clipPath id="clip0_301_1183">
<rect width="70.5882" height="24" fill="white" transform="translate(0.949219)"/>
</clipPath>
</defs>
</svg>
