<svg width="20" height="21" viewBox="0 0 20 21" fill="none" xmlns="http://www.w3.org/2000/svg">
<g id="twitter 2" clip-path="url(#clip0_2339_734)">
<g id="Group">
<path id="Vector" d="M9.99991 20.9251C15.5227 20.9251 19.9998 16.448 19.9998 10.9252C19.9998 5.40241 15.5227 0.925293 9.99991 0.925293C4.47711 0.925293 0 5.40241 0 10.9252C0 16.448 4.47711 20.9251 9.99991 20.9251Z" fill="white"/>
<g id="Group_2">
<path id="Vector_2" d="M16.1232 8.11185C15.6947 8.30188 15.2337 8.4304 14.7503 8.4878C15.2439 8.19207 15.6227 7.72414 15.8015 7.16566C15.3396 7.43964 14.8278 7.6384 14.2836 7.74553C13.8476 7.28117 13.2264 6.99097 12.5385 6.99097C11.2186 6.99097 10.1482 8.06141 10.1482 9.38123C10.1482 9.56858 10.1694 9.75093 10.2104 9.92598C8.22392 9.82634 6.46255 8.8748 5.28355 7.42823C5.07784 7.78118 4.95983 8.19207 4.95983 8.63005C4.95983 9.45913 5.38213 10.1911 6.02314 10.6196C5.63151 10.6073 5.2627 10.4998 4.94058 10.3203C4.9404 10.3305 4.9404 10.3406 4.9404 10.3506C4.9404 11.5087 5.76467 12.4747 6.85793 12.6941C6.65756 12.7491 6.44597 12.7781 6.22832 12.7781C6.07395 12.7781 5.92439 12.7633 5.77857 12.7355C6.08268 13.6849 6.96524 14.376 8.01143 14.3954C7.19323 15.0366 6.16272 15.4186 5.04255 15.4186C4.85003 15.4186 4.65929 15.4074 4.47266 15.3851C5.5299 16.0636 6.78662 16.4591 8.13639 16.4591C12.5329 16.4591 14.9373 12.817 14.9373 9.65806C14.9373 9.55449 14.935 9.45128 14.9303 9.34896C15.3977 9.01205 15.8029 8.59119 16.1232 8.11185Z" fill="#305F64"/>
</g>
</g>
</g>
<defs>
<clipPath id="clip0_2339_734">
<rect width="20" height="20" fill="white" transform="translate(0 0.925293)"/>
</clipPath>
</defs>
</svg>
