<svg width="58" height="20" viewBox="0 0 58 20" fill="none" xmlns="http://www.w3.org/2000/svg">
<g id="Uber_logo_2018 1" clip-path="url(#clip0_301_1194)">
<g id="Group">
<path id="Vector" d="M4.0077 14.2837C4.24956 14.9298 4.58441 15.4823 5.01232 15.941C5.44023 16.3999 5.94717 16.751 6.53316 16.9944C7.1192 17.2379 7.75637 17.3596 8.44472 17.3596C9.1145 17.3596 9.74234 17.2332 10.3284 16.9803C10.9144 16.7275 11.426 16.3717 11.8632 15.9129C12.3003 15.4541 12.6399 14.9064 12.8818 14.2697C13.1236 13.633 13.2445 12.9214 13.2445 12.1349V0H16.1746V19.6629H13.2724V17.8371C12.6213 18.5299 11.8538 19.0636 10.9702 19.4382C10.0865 19.8127 9.13308 20 8.10987 20C7.06801 20 6.09599 19.8174 5.19367 19.4522C4.29142 19.0871 3.51001 18.5675 2.84963 17.8933C2.18924 17.2191 1.66828 16.4093 1.28693 15.4635C0.905519 14.5178 0.714844 13.4645 0.714844 12.3034V0H3.64493V12.1349C3.64493 12.9214 3.76583 13.6376 4.0077 14.2837Z" fill="#154444"/>
<path id="Vector_2" d="M21.2247 0V7.16291C21.8758 6.50749 22.6293 5.98787 23.4851 5.60394C24.3408 5.22001 25.2711 5.02808 26.2756 5.02808C27.3175 5.02808 28.2941 5.22467 29.2057 5.61793C30.1173 6.01118 30.9079 6.54491 31.5777 7.2191C32.2474 7.89329 32.7777 8.68912 33.1683 9.60672C33.559 10.5244 33.7543 11.4981 33.7543 12.5281C33.7543 13.558 33.559 14.5271 33.1683 15.4353C32.7777 16.3436 32.2474 17.1348 31.5777 17.8089C30.9079 18.4831 30.1173 19.0168 29.2057 19.4101C28.2941 19.8033 27.3174 19.9999 26.2756 19.9999C25.271 19.9999 24.3362 19.808 23.4711 19.4241C22.606 19.0402 21.8479 18.5205 21.1968 17.8651V19.6629H18.4062V0H21.2247ZM21.5456 14.4663C21.7967 15.0656 22.1456 15.5899 22.5921 16.0394C23.0386 16.4888 23.5595 16.8446 24.1548 17.1068C24.7502 17.369 25.392 17.5001 26.0803 17.5001C26.7501 17.5001 27.3826 17.369 27.9779 17.1068C28.5732 16.8446 29.0894 16.4889 29.5267 16.0394C29.9638 15.59 30.3127 15.0656 30.5731 14.4663C30.8336 13.8671 30.9638 13.221 30.9638 12.5281C30.9638 11.8352 30.8336 11.1845 30.5731 10.5758C30.3127 9.96721 29.9638 9.43821 29.5267 8.98877C29.0894 8.53939 28.5732 8.18822 27.9779 7.93543C27.3825 7.68265 26.75 7.55616 26.0803 7.55616C25.4106 7.55616 24.7781 7.68259 24.1828 7.93543C23.5875 8.18828 23.0666 8.53939 22.62 8.98877C22.1736 9.43821 21.8201 9.96721 21.5596 10.5758C21.2992 11.1845 21.1689 11.8352 21.1689 12.5281C21.1689 13.221 21.2945 13.8671 21.5456 14.4663Z" fill="#154444"/>
<path id="Vector_3" d="M35.3471 9.63473C35.7191 8.73584 36.2308 7.94467 36.8819 7.26116C37.5329 6.57764 38.3051 6.03926 39.1981 5.646C40.091 5.25275 41.0584 5.05615 42.1002 5.05615C43.1235 5.05615 44.0723 5.24343 44.9467 5.61791C45.821 5.99245 46.5744 6.51213 47.207 7.17694C47.8395 7.84168 48.3326 8.62825 48.6859 9.53646C49.0395 10.4447 49.2162 11.4326 49.2162 12.5V13.427H37.6354C37.7284 14.0075 37.9145 14.5459 38.1935 15.0421C38.4726 15.5383 38.8213 15.9691 39.2399 16.3342C39.6585 16.6994 40.1329 16.985 40.6631 17.191C41.1934 17.3969 41.7561 17.5 42.3514 17.5C44.0444 17.5 45.4118 16.7977 46.4536 15.3932L48.4907 16.91C47.7838 17.8651 46.9094 18.6142 45.8676 19.1572C44.8258 19.7003 43.6537 19.9718 42.3515 19.9718C41.291 19.9718 40.3004 19.7845 39.3795 19.41C38.4586 19.0355 37.6587 18.5111 36.9797 17.8369C36.3006 17.1627 35.7658 16.3716 35.3751 15.4634C34.9844 14.5552 34.7891 13.5673 34.7891 12.4999C34.7889 11.4887 34.975 10.5336 35.3471 9.63473ZM39.2678 8.52514C38.4772 9.18995 37.9516 10.0748 37.6912 11.1796H46.3699C46.128 10.0748 45.6117 9.18995 44.8211 8.52514C44.0304 7.86039 43.1049 7.52799 42.0445 7.52799C40.984 7.52799 40.0585 7.86039 39.2678 8.52514Z" fill="#154444"/>
<path id="Vector_4" d="M54.4888 8.84824C53.8935 9.50366 53.5959 10.3932 53.5959 11.5168V19.6629H50.7773V5.33705H53.5679V7.10672C53.9214 6.52619 54.3818 6.06737 54.9492 5.7303C55.5166 5.39317 56.191 5.22461 56.9724 5.22461H57.9491V7.86507H56.7771C55.8469 7.86513 55.0841 8.19281 54.4888 8.84824Z" fill="#154444"/>
</g>
</g>
<defs>
<clipPath id="clip0_301_1194">
<rect width="57.2338" height="20" fill="white" transform="translate(0.714844)"/>
</clipPath>
</defs>
</svg>
