<svg width="68" height="24" viewBox="0 0 68 24" fill="none" xmlns="http://www.w3.org/2000/svg">
<g id="visa 1" clip-path="url(#clip0_301_1166)">
<path id="Vector" d="M25.1797 22.3201L28.593 3.12012H33.9263L30.6197 22.3201H25.1797Z" fill="#3C58BF"/>
<path id="Vector_2" d="M25.1797 22.3201L29.553 3.12012H33.9263L30.6197 22.3201H25.1797Z" fill="#293688"/>
<path id="Vector_3" d="M49.9255 3.33331C48.8588 2.90665 47.1521 2.47998 45.0188 2.47998C39.6855 2.47998 35.8455 5.14665 35.8455 8.98665C35.8455 11.8666 38.5121 13.36 40.6455 14.32C42.7788 15.28 43.4188 15.92 43.4188 16.7733C43.4188 18.0533 41.7121 18.6933 40.2188 18.6933C38.0855 18.6933 36.9121 18.3733 35.0988 17.6266L34.3521 17.3066L33.6055 21.68C34.8855 22.2133 37.2321 22.7466 39.6855 22.7466C45.3388 22.7466 49.0721 20.08 49.0721 16.0266C49.0721 13.7866 47.6855 12.08 44.4855 10.6933C42.5655 9.73331 41.3921 9.19998 41.3921 8.23998C41.3921 7.38665 42.3521 6.53331 44.4855 6.53331C46.2988 6.53331 47.5788 6.85331 48.5388 7.27998L49.0721 7.49331L49.9255 3.33331Z" fill="#3C58BF"/>
<path id="Vector_4" d="M49.9255 3.33331C48.8588 2.90665 47.1521 2.47998 45.0188 2.47998C39.6855 2.47998 36.8055 5.14665 36.8055 8.98665C36.8055 11.8666 38.5121 13.36 40.6455 14.32C42.7788 15.28 43.4188 15.92 43.4188 16.7733C43.4188 18.0533 41.7121 18.6933 40.2188 18.6933C38.0855 18.6933 36.9121 18.3733 35.0988 17.6266L34.3521 17.3066L33.6055 21.68C34.8855 22.2133 37.2321 22.7466 39.6855 22.7466C45.3388 22.7466 49.0721 20.08 49.0721 16.0266C49.0721 13.7866 47.6855 12.08 44.4855 10.6933C42.5655 9.73331 41.3921 9.19998 41.3921 8.23998C41.3921 7.38665 42.3521 6.53331 44.4855 6.53331C46.2988 6.53331 47.5788 6.85331 48.5388 7.27998L49.0721 7.49331L49.9255 3.33331Z" fill="#293688"/>
<path id="Vector_5" d="M59.0975 3.12012C57.8175 3.12012 56.8575 3.22679 56.3242 4.50679L48.3242 22.3201H54.0842L55.1509 19.1201H61.9775L62.6175 22.3201H67.7375L63.2575 3.12012H59.0975ZM56.6442 15.9201C56.9642 14.9601 58.7775 10.2668 58.7775 10.2668C58.7775 10.2668 59.2042 9.09345 59.5242 8.34679L59.8442 10.1601C59.8442 10.1601 60.9109 14.9601 61.1242 16.0268H56.6442V15.9201Z" fill="#3C58BF"/>
<path id="Vector_6" d="M60.3775 3.12012C59.0975 3.12012 58.1375 3.22679 57.6042 4.50679L48.3242 22.3201H54.0842L55.1509 19.1201H61.9775L62.6175 22.3201H67.7375L63.2575 3.12012H60.3775ZM56.6442 15.9201C57.0709 14.8535 58.7775 10.2668 58.7775 10.2668C58.7775 10.2668 59.2042 9.09345 59.5242 8.34679L59.8442 10.1601C59.8442 10.1601 60.9109 14.9601 61.1242 16.0268H56.6442V15.9201Z" fill="#293688"/>
<path id="Vector_7" d="M15.3672 16.5599L14.8339 13.7866C13.8739 10.5866 10.7805 7.06656 7.36719 5.3599L12.1672 22.4266H17.9272L26.5672 3.22656H20.8072L15.3672 16.5599Z" fill="#3C58BF"/>
<path id="Vector_8" d="M15.3672 16.5599L14.8339 13.7866C13.8739 10.5866 10.7805 7.06656 7.36719 5.3599L12.1672 22.4266H17.9272L26.5672 3.22656H21.8739L15.3672 16.5599Z" fill="#293688"/>
<path id="Vector_9" d="M0.539062 3.12012L1.49906 3.33345C8.32573 4.93345 13.0191 8.98679 14.8324 13.7868L12.9124 4.72012C12.5924 3.44012 11.6324 3.12012 10.4591 3.12012H0.539062Z" fill="#FFBC00"/>
<path id="Vector_10" d="M0.539062 3.12012C7.36573 4.72012 13.0191 8.88012 14.8324 13.6801L13.0191 6.10678C12.6991 4.82678 11.6324 4.08012 10.4591 4.08012L0.539062 3.12012Z" fill="#F7981D"/>
<path id="Vector_11" d="M0.539062 3.12012C7.36573 4.72012 13.0191 8.88012 14.8324 13.6801L13.5524 9.52012C13.2324 8.24012 12.8057 6.96012 11.3124 6.42678L0.539062 3.12012Z" fill="#ED7C00"/>
<g id="Group">
<path id="Vector_12" d="M20.6993 15.9201L17.0727 12.2934L15.366 16.3468L14.9393 13.6801C13.9793 10.4801 10.886 6.96008 7.47266 5.25342L12.2727 22.3201H18.0327L20.6993 15.9201Z" fill="#051244"/>
<path id="Vector_13" d="M30.6197 22.3203L26.033 17.627L25.1797 22.3203H30.6197Z" fill="#051244"/>
<path id="Vector_14" d="M42.8855 15.7065C43.3121 16.1332 43.5255 16.4532 43.4188 16.8799C43.4188 18.1599 41.7121 18.7999 40.2188 18.7999C38.0855 18.7999 36.9121 18.4799 35.0988 17.7332L34.3521 17.4132L33.6055 21.7865C34.8855 22.3199 37.2321 22.8532 39.6855 22.8532C43.0988 22.8532 45.8721 21.8932 47.4721 20.1865L42.8855 15.7065Z" fill="#051244"/>
<path id="Vector_15" d="M49.0742 22.32H54.0876L55.1542 19.12H61.9809L62.6209 22.32H67.7409L65.9275 14.5333L59.5275 8.34668L59.8475 10.0533C59.8475 10.0533 60.9142 14.8533 61.1275 15.92H56.6475C57.0742 14.8533 58.7809 10.2667 58.7809 10.2667C58.7809 10.2667 59.2075 9.09335 59.5275 8.34668" fill="#051244"/>
</g>
</g>
<defs>
<clipPath id="clip0_301_1166">
<rect width="67.2" height="24" fill="white" transform="translate(0.539062)"/>
</clipPath>
</defs>
</svg>
