<svg width="20" height="21" viewBox="0 0 20 21" fill="none" xmlns="http://www.w3.org/2000/svg">
<g id="youtube 1" clip-path="url(#clip0_2339_745)">
<path id="Vector" d="M10 20.9253C15.5229 20.9253 20 16.4482 20 10.9253C20 5.40245 15.5229 0.925293 10 0.925293C4.47716 0.925293 0 5.40245 0 10.9253C0 16.4482 4.47716 20.9253 10 20.9253Z" fill="white"/>
<path id="Vector_2" d="M17.0689 3.85327C20.9741 7.75886 20.9744 14.0908 17.0689 17.9963C13.1636 21.9016 6.83137 21.9018 2.92578 17.9963L17.0689 3.85327Z" fill="white"/>
<path id="Vector_3" d="M19.7979 12.9279L14.8485 7.97876L9.01132 8.64337L5.48047 14.1097L12.0781 20.7072C15.9572 19.8866 19.0068 16.8182 19.7979 12.9279Z" fill="white"/>
<path id="Vector_4" d="M15.2328 8.99531C15.2328 8.15701 14.5537 7.47754 13.7159 7.47754H6.59871C5.76103 7.47754 5.08203 8.15717 5.08203 8.99531V13.0653C5.08203 13.9036 5.76116 14.583 6.59871 14.583H13.7157C14.5537 14.583 15.2327 13.9034 15.2327 13.0653V8.99531H15.2328ZM9.14203 12.7473V8.92458L12.041 10.836L9.14203 12.7473Z" fill="#305F64"/>
</g>
<defs>
<clipPath id="clip0_2339_745">
<rect width="20" height="20" fill="white" transform="translate(0 0.925293)"/>
</clipPath>
</defs>
</svg>
